<?xml version="1.0" encoding="utf-8"?>
<!-- Generator: Adobe Illustrator 26.0.1, SVG Export Plug-In . SVG Version: 6.00 Build 0)  -->
<svg version="1.1" id="圖層_1" xmlns="http://www.w3.org/2000/svg" xmlns:xlink="http://www.w3.org/1999/xlink" x="0px" y="0px"
	 viewBox="0 0 512 512" style="enable-background:new 0 0 512 512;" xml:space="preserve">
<style type="text/css">
	.st0{fill:#FFFFFF;}
</style>
<g id="bangumiw">
	<path id="bangumi_00000093863047841427627930000004500261261282610839_" class="st0" d="M232.5,184.2c3.6-5.6,8.6-10.1,14.6-12.9
		l-74.9-76l5.4-5.3l78.5,78.2c7.2-1.7,14.8-1.1,21.7,1.7l59.7-79.6l6.2,4.2l-58.8,79.1c4.5,2.7,8.3,6.3,11.3,10.7h76.5
		c9.5,0.2,17.2,7.9,17.2,17.4V337c0,9.6-7.8,17.5-17.4,17.5l0,0H261.4L231,376.9c-4.4,1.6-9.2-0.6-10.9-4.9
		c-0.9-2.5-0.7-5.2,0.7-7.5l3.8-10.1h-83.9c-9.6,0-17.4-7.8-17.4-17.5l0,0V201.6c0-9.6,7.8-17.4,17.4-17.4L232.5,184.2z"/>
</g>
<g id="bangumic">
	<path id="bangumi" class="st0" d="M232.5,184.2c3.6-5.6,8.6-10.1,14.6-12.9l-74.9-76l5.4-5.3l78.5,78.2c7.2-1.7,14.8-1.1,21.7,1.7
		l59.7-79.6l6.2,4.2l-58.8,79.1c4.5,2.7,8.3,6.3,11.3,10.7h76.5c9.5,0.2,17.2,7.9,17.2,17.4V337c0,9.6-7.8,17.5-17.4,17.5l0,0H261.4
		L231,376.9c-4.4,1.6-9.2-0.6-10.9-4.9c-0.9-2.5-0.7-5.2,0.7-7.5l3.8-10.1h-83.9c-9.6,0-17.4-7.8-17.4-17.5l0,0V201.6
		c0-9.6,7.8-17.4,17.4-17.4L232.5,184.2z"/>
</g>
</svg>
