<svg aria-hidden="true" focusable="false" data-prefix="fab" data-icon="bangumi" class="svg-inline--fa-bangumi fa-w-16" role="img" xmlns="http://www.w3.org/2000/svg" viewBox="0 0 266.6 287.4"><path fill="currentColor" d="M109.2,94.2c3.6-5.6,8.6-10.1,14.6-12.9l-74.9-76L54.3,0l78.5,78.2c7.2-1.7,14.8-1.1,21.7,1.7l59.7-79.6l6.2,4.2l-58.8,79.1
	c4.5,2.7,8.3,6.3,11.3,10.7h76.5c9.5,0.2,17.2,7.9,17.2,17.4V247c0,9.6-7.8,17.5-17.4,17.5l0,0H138.1l-30.4,22.4
	c-4.4,1.6-9.2-0.6-10.9-4.9c-0.9-2.5-0.7-5.2,0.7-7.5l3.8-10.1H17.4c-9.6,0-17.4-7.8-17.4-17.5l0,0V111.6c0-9.6,7.8-17.4,17.4-17.4
	L109.2,94.2z"></path></svg>
